<svg viewBox="0 0 29 31.2714" xmlns="http://www.w3.org/2000/svg" xmlns:xlink="http://www.w3.org/1999/xlink" width="29.000000" height="31.271423" fill="none" customFrame="#000000">
	<defs>
		<g id="pixso_custom_effect_0">
			<effect x="0.000000" y="4.000000" visibility="visible" fill="rgb(0,0,0)" fill-opacity="0.25" effectType="dropShadow" stdDeviation="4" radius="0" />
		</g>
		<filter id="filter_0" width="29.000000" height="31.271423" x="0.000000" y="0.000000" filterUnits="userSpaceOnUse" customEffect="url(#pixso_custom_effect_0)" color-interpolation-filters="sRGB">
			<feFlood flood-opacity="0" result="BackgroundImageFix" />
			<feOffset dx="0.000000" dy="4.000000" in="SourceAlpha" />
			<feGaussianBlur stdDeviation="1.33333337" />
			<feColorMatrix type="matrix" values="0 0 0 0 0 0 0 0 0 0 0 0 0 0 0 0 0 0 0.25 0 " />
			<feBlend result="effect_dropShadow_1" in2="BackgroundImageFix" mode="normal" />
			<feBlend result="shape" in="SourceGraphic" in2="effect_dropShadow_1" mode="normal" />
		</filter>
	</defs>
	<g filter="url(#filter_0)">
		<rect id="Frame 211" width="24.000000" height="24.000000" x="2.500000" y="0.000000" fill="rgb(255,255,255)" fill-opacity="0" />
	</g>
	<path id="Shape (Stroke)" d="M13.8325 1.89779L5.83366 5.89724L5.83255 5.89779C5.32288 6.15105 5.00045 6.67092 5.00005 7.24003L5.00005 16.7635C4.99608 17.3334 5.31541 17.8563 5.82416 18.1131L13.8237 22.1128C14.2462 22.3242 14.7438 22.3243 15.1663 22.1129L23.1664 18.1128L23.1675 18.1123C23.6773 17.859 23.9997 17.339 24 16.7698L24 7.24029C23.9997 6.67109 23.6773 6.15109 23.1675 5.89779L23.1664 5.89724L15.1675 1.89779C14.7474 1.68923 14.2527 1.68922 13.8325 1.89779ZM13.3875 1.00226C14.0883 0.654031 14.9118 0.654031 15.6125 1.00226L15.6137 1.00281L23.6125 5.00226C24.4618 5.42451 24.9995 6.29126 25 7.23976L25 16.77C24.9995 17.7185 24.4624 18.5852 23.6132 19.0075L15.6138 23.0072C14.9097 23.3595 14.0806 23.3595 13.3764 23.0072L5.37644 19.0072L5.37506 19.0065C4.52685 18.5792 3.99413 17.7081 4.00005 16.7584L4.00005 7.24003C4.00055 6.29157 4.53772 5.42483 5.38695 5.00256L13.3864 1.00281L13.3875 1.00226Z" fill="rgb(64.8125,64.8125,64.8125)" fill-rule="evenodd" />
	<path id="Shape (Stroke)" d="M4.37321 5.93641C4.4967 5.68943 4.79704 5.58931 5.04403 5.71281L14.5004 10.441L23.9568 5.71281C24.2038 5.58931 24.5041 5.68943 24.6276 5.93641C24.7511 6.1834 24.651 6.48374 24.404 6.60724L14.724 11.4472C14.5833 11.5176 14.4176 11.5176 14.2768 11.4472L4.59682 6.60724C4.34983 6.48374 4.24971 6.1834 4.37321 5.93641Z" fill="rgb(64.8125,64.8125,64.8125)" fill-rule="evenodd" />
	<path id="Shape (Stroke)" d="M14.5 10.5C14.7761 10.5 15 10.7239 15 11L15 22.76C15 23.0361 14.7761 23.26 14.5 23.26C14.2239 23.26 14 23.0361 14 22.76L14 11C14 10.7239 14.2239 10.5 14.5 10.5Z" fill="rgb(64.8125,64.8125,64.8125)" fill-rule="evenodd" />
	<path id="Shape (Stroke)" d="M9.0529 3.27638C9.17639 3.02939 9.47673 2.92928 9.72372 3.05277L19.7237 8.05277C19.9707 8.17627 20.0708 8.4766 19.9473 8.72359C19.8238 8.97058 19.5235 9.0707 19.2765 8.9472L9.2765 3.9472C9.02951 3.82371 8.9294 3.52337 9.0529 3.27638Z" fill="rgb(64.8125,64.8125,64.8125)" fill-rule="evenodd" />
</svg>
