<svg viewBox="0 0 39 32" xmlns="http://www.w3.org/2000/svg" xmlns:xlink="http://www.w3.org/1999/xlink" width="39.000000" height="32.000000" fill="none" customFrame="#000000">
	<rect id="logo" width="39.000000" height="32.000000" x="0.000000" y="0.000000" transform="matrix(-1,0,0,1,39,0)" />
	<g id="Group">
		<path id="Vector" d="M31.6073 0L1.10788 0C0.468303 0 -0.0516085 0.548425 0.00409629 1.19277C0.672554 8.86447 7.73881 14.9013 16.3566 14.9013C24.9743 14.9013 32.0406 8.86447 32.709 1.19277C32.7668 0.548425 32.2469 0 31.6073 0Z" fill="rgb(255,102,51)" fill-rule="nonzero" transform="matrix(-1,0,0,1,35.8779,16.9258)" />
	</g>
	<g id="Group">
		<path id="Vector" d="M13.9736 5.13601C13.6331 5.13601 13.2948 4.9817 13.074 4.6856C11.9599 3.20506 9.84315 2.28337 7.551 2.28337C5.25885 2.28337 3.14207 3.20297 2.02797 4.6856C1.65041 5.18815 0.940693 5.28407 0.445539 4.90246C-0.0516782 4.52086 -0.146583 3.80353 0.230972 3.30306C1.78658 1.23448 4.52231 0 7.551 0C10.5797 0 13.3154 1.23448 14.8731 3.30306C15.2506 3.80561 15.1537 4.52086 14.6585 4.90246C14.4522 5.06094 14.2129 5.13601 13.9736 5.13601Z" fill="rgb(64.8125,64.8125,64.8125)" fill-rule="nonzero" transform="matrix(-1,0,0,1,39,0.310547)" />
	</g>
	<g id="Group">
		<path id="Vector" d="M13.9736 5.13601C13.6331 5.13601 13.2948 4.9817 13.074 4.6856C11.9599 3.20506 9.84315 2.28337 7.551 2.28337C5.25885 2.28337 3.14207 3.20297 2.02797 4.6856C1.65041 5.18815 0.940694 5.28407 0.44554 4.90246C-0.0516772 4.52086 -0.146584 3.80353 0.230972 3.30306C1.78658 1.23448 4.52231 0 7.551 0C10.5797 0 13.3154 1.23448 14.8731 3.30306C15.2506 3.80561 15.1537 4.52086 14.6585 4.90246C14.4522 5.06094 14.2129 5.13601 13.9736 5.13601Z" fill="rgb(64.8125,64.8125,64.8125)" fill-rule="nonzero" transform="matrix(-1,0,0,1,15.1465,0.310547)" />
	</g>
</svg>
